<?xml version="1.0" encoding="utf-8"?>
<!-- Generator: Adobe Illustrator 25.0.1, SVG Export Plug-In . SVG Version: 6.00 Build 0)  -->
<svg version="1.1" id="Ebene_1" xmlns="http://www.w3.org/2000/svg" xmlns:xlink="http://www.w3.org/1999/xlink" x="0px" y="0px"
	 viewBox="0 0 256 256" style="enable-background:new 0 0 256 256;" xml:space="preserve">
<style type="text/css">
	.st0{fill:#3E51CB;}
	.st1{fill:#FFFFFF;}
	.st2{opacity:0.3;fill:#3E51CB;enable-background:new    ;}
</style>
<rect x="0" class="st0" width="256" height="256"/>
<g>
	<path class="st1" d="M116.9,103.8c0.1-5-3.8-9.1-8.7-9.3c-2.4-0.1-4.8,0.8-6.5,2.5c-1.8,1.6-2.9,3.9-2.9,6.3
		c-0.1,5,3.8,9.1,8.8,9.3C112.6,112.8,116.8,108.8,116.9,103.8z"/>
	<path class="st1" d="M147.1,148.5c-2.7-1.6-6-1.9-9-1c-3,0.8-5.6,2.9-7,5.6c-3.2,5.7-1.1,12.9,4.6,16c5.7,3.2,12.9,1.1,16-4.6
		C154.8,158.8,152.7,151.6,147.1,148.5z"/>
	<path class="st1" d="M147.9,26H65.2c0,0,0,0,0,0c-9.3,0-16.9,7.6-16.9,17v166.3c0,0,0,0,0,0.1c0,9.4,7.6,16.9,16.9,16.9h125.7
		c9.3,0,16.9-7.5,16.9-16.9V86.1L147.9,26z M107,123.3c-0.8,0.1-1.7,0.1-2.5,0l0.1-0.4l-4.4,5.3c-0.4,0.6-1,0.6-1.7,0l-8.8-5.5
		c-0.6-0.3-0.8-1-0.4-1.6l2.8-6.3c-1-1.4-1.8-2.9-2.4-4.4l-6.8-1.2c-0.6-0.1-1.1-0.6-1-1.2l0.4-10.4c0-0.6,0.5-1.1,1.1-1.2l6.6-0.5
		c0.7-1.5,1.6-3,2.7-4.3L90.4,85c-0.2-0.6,0-1.3,0.6-1.6l9.1-4.9c0.7-0.4,1.3-0.3,1.7,0.3l4,5.6c0.8-0.1,1.7-0.1,2.5,0
		c0.9,0,1.7,0.1,2.6,0.2l4.4-5.3c0.4-0.6,1-0.6,1.7,0l8.8,5.5c0.5,0.3,0.7,1,0.4,1.6l-2.7,6.3c1,1.4,1.8,2.9,2.4,4.4l6.7,1.2
		c0.6,0,1.1,0.6,1.1,1.2c0,0,0,0,0,0l-0.4,10.4c0,0.6-0.5,1.2-1.2,1.2l-6.8,0.7c-0.7,1.5-1.6,3-2.7,4.3l2.3,6.5
		c0.3,0.6,0,1.2-0.5,1.6l-9.1,4.9c-0.7,0.4-1.3,0.3-1.7-0.3l-4-5.6C108.7,123.3,107.9,123.3,107,123.3z M173.9,169.1l-6.6,11.8
		c-0.4,0.7-1.3,1.1-2,0.7l-8.3-3.2c-1.7,1.4-3.6,2.5-5.6,3.4l-1.2,8.9c0,0.8-0.7,1.5-1.6,1.5l-13.5,0.3c-1.1,0-1.7-0.4-1.8-1.3
		l-1.4-8.9c-1-0.4-2-0.9-3-1.5c-0.9-0.5-1.9-1-2.7-1.7l-8.3,3.7c-0.8,0.4-1.5,0-2.1-0.8l-6.9-11.6c-0.4-0.7-0.2-1.6,0.4-2.1l6.9-5.8
		c-0.3-2.2-0.3-4.4,0-6.6l-7.1-5.4c-0.7-0.5-0.9-1.4-0.4-2.1l6.6-11.8c0.4-0.7,1.3-1.1,2-0.7l8.3,3.2c1.7-1.4,3.6-2.5,5.6-3.4
		l1.2-8.9c0-0.8,0.7-1.5,1.6-1.5l13.5-0.3c1.1,0,1.7,0.4,1.8,1.3l1.3,9c1,0.4,2,0.9,3,1.5c1,0.5,1.9,1.1,2.8,1.7l8.2-3.7
		c0.8-0.4,1.5,0,2.1,0.8l6.9,11.6c0.4,0.7,0.2,1.6-0.4,2.1l-6.9,5.7c0.3,2.2,0.3,4.4,0,6.6l7.1,5.4
		C174,167.5,174.2,168.4,173.9,169.1z"/>
</g>
<polygon class="st2" points="208.4,86.4 148,26 148,86.4 "/>
</svg>
