<svg xmlns="http://www.w3.org/2000/svg" viewBox="0 0 64 64"><defs><style>.cls-1{isolation:isolate}.cls-3{fill:#131313}</style></defs><rect id="BG-Color" width="64" height="64" rx="4" ry="4" style="fill:#7086ff"/><g id="ExtentionIcons"><path d="M49.417 30.002c-.462 0-.912-.09-1.338-.265L48 29.705V46.47H16v-22h13.268c-.55-1.504-.064-3.165 1.2-4.031l.174-.13-.248-.185a3 3 0 0 1-.368-.324c-1.204-1.25-1.343-3.074-.412-4.382l.559-.948H14a2 2 0 0 0-2 2v32a2 2 0 0 0 2 2h36a2 2 0 0 0 2-2v-19.64c-.66.73-1.583 1.173-2.583 1.173M49.447 26.994c-.014.001-.028.006-.043.005q.006.002.013.003c.01 0 .02-.007.03-.008" class="cls-3"/><g class="cls-1"><path d="M23.912 35.487a2.5 2.5 0 0 0-.07.76c0 .205.07.486.07.759l-1.763 1.313c-.14.076-.14.342-.07.486l1.632 2.772a.4.4 0 0 0 .495.144l2.049-.828q.674.435 1.407.76l.217 2.004c.046.196.22.336.425.342h3.31c.212.017.4-.134.425-.342l.278-2.156c.506-.182.98-.438 1.408-.76l2.049.828a.406.406 0 0 0 .495-.144l1.608-2.764c.14-.144.07-.342-.077-.486l-1.702-1.313c.069-.247.095-.504.078-.76h.023c0-.288-.062-.523-.077-.956l1.763-1.314c.139-.076.139-.341.07-.486l-1.624-2.77a.406.406 0 0 0-.495-.145l-2.05.827a11 11 0 0 0-1.415-.759l-.278-2.156a.43.43 0 0 0-.418-.342h-3.317a.385.385 0 0 0-.417.342l-.279 2.498a5.2 5.2 0 0 0-1.407.76l-2.05-.828a.4.4 0 0 0-.494.144l-1.632 2.771c-.146.144-.07.342.07.486zm6.078-1.746c1.281 0 2.32 1.02 2.32 2.278s-1.039 2.278-2.32 2.278-2.32-1.02-2.32-2.278 1.039-2.278 2.32-2.278" class="cls-3"/></g><g class="cls-1"><path d="M34.39 19.36c-.077.31-.107.63-.087.948 0 .257.087.608.087.95l-2.204 1.641c-.174.095-.174.427-.087.608l2.04 3.464c.131.202.395.28.618.18l2.562-1.034q.841.542 1.759.949l.27 2.505c.058.245.276.42.532.427h4.137a.49.49 0 0 0 .531-.427l.348-2.695a6.7 6.7 0 0 0 1.76-.95l2.56 1.035a.51.51 0 0 0 .62-.18l2.01-3.455c.174-.18.087-.427-.097-.607l-2.126-1.642c.085-.309.118-.63.097-.949h.029c0-.36-.078-.655-.097-1.196l2.204-1.642c.174-.094.174-.427.087-.607l-2.03-3.464a.51.51 0 0 0-.619-.18l-2.561 1.034a13.5 13.5 0 0 0-1.769-.949l-.348-2.695a.54.54 0 0 0-.522-.427h-4.146a.48.48 0 0 0-.522.427l-.348 3.122a6.5 6.5 0 0 0-1.76.95l-2.561-1.035a.5.5 0 0 0-.618.18l-2.04 3.464c-.184.18-.087.427.087.608zm7.597-2.183c1.602 0 2.9 1.274 2.9 2.847s-1.298 2.847-2.9 2.847-2.9-1.275-2.9-2.847 1.299-2.847 2.9-2.847" class="cls-3"/></g></g></svg>